<?xml version="1.0" standalone="no"?>
<!DOCTYPE svg PUBLIC "-//W3C//DTD SVG 1.1//EN" "http://www.w3.org/Graphics/SVG/1.1/DTD/svg11.dtd" >
<!--
2013-9-30: Created.
-->
<svg>
<metadata>
Created by iconfont
</metadata>
<defs>

<font id="vc_iconfont" horiz-adv-x="1024" >
  <font-face
    font-family="vc_iconfont"
    font-weight="500"
    font-stretch="normal"
    units-per-em="1024"
    ascent="896"
    descent="-128"
  />
    <missing-glyph />
    
    <glyph glyph-name="gouwucheman" unicode="&#58884;" d="M346.112 89.088q19.456 0 36.864-7.168t30.208-19.968 20.48-30.208 7.68-36.864-7.68-36.864-20.48-30.208-30.208-20.48-36.864-7.68q-20.48 0-37.888 7.68t-30.208 20.48-20.48 30.208-7.68 36.864 7.68 36.864 20.48 30.208 30.208 19.968 37.888 7.168zM772.096 87.04q19.456 0 37.376-7.168t30.72-19.968 20.48-30.208 7.68-36.864-7.68-36.864-20.48-30.208-30.72-20.48-37.376-7.68-36.864 7.68-30.208 20.48-20.48 30.208-7.68 36.864 7.68 36.864 20.48 30.208 30.208 19.968 36.864 7.168zM944.128 668.672q28.672 0 44.544-7.68t22.528-18.944 6.144-24.064-3.584-22.016-13.312-37.888-22.016-62.976-23.552-68.096-18.944-53.248q-13.312-40.96-33.28-56.832t-49.664-15.872l-35.84 0-65.536 0-86.016 0-96.256 0-253.952 0 14.336-92.16 517.12 0q49.152 0 49.152-41.984 0-20.48-9.728-35.328t-38.4-14.848l-49.152 0-94.208 0-118.784 0-119.808 0-99.328 0-55.296 0q-20.48 0-34.304 9.216t-23.04 24.064-14.848 32.256-8.704 32.768q-1.024 6.144-5.632 29.696t-11.264 58.88-14.848 78.848-16.384 87.552q-19.456 103.424-44.032 230.4l-76.8 0q-15.36 0-25.6 7.68t-16.896 18.432-9.216 23.04-2.56 22.528q0 20.48 13.824 33.792t37.376 13.312l21.504 0 21.504 0 25.6 0 34.816 0q20.48 0 32.768-6.144t19.456-15.36 10.24-19.456 5.12-17.408q2.048-8.192 4.096-23.04t4.096-30.208q3.072-18.432 6.144-38.912l700.416 0zM867.328 701.44l-374.784 0 135.168 135.168q23.552 23.552 51.712 24.064t51.712-23.04z"  horiz-adv-x="1024" />

    
    <glyph glyph-name="sousuo" unicode="&#59075;" d="M918.385-17.233 749.222 151.93c-2.931 2.93-6.58 4.366-9.989 6.579 98.28 138.954 86.077 332.163-38.342 456.582-139.014 139.073-364.464 139.073-503.538 0-139.073-139.014-139.073-364.403 0-503.538 125.794-125.795 321.636-136.562 460.948-34.814 2.213-3.169 3.589-6.639 6.34-9.45l169.162-169.162c23.448-23.388 61.253-23.388 84.582 0C941.714-78.426 941.714-40.561 918.385-17.233L918.385-17.233zM629.649 182.914c-99.655-99.654-261.22-99.654-360.934 0-99.655 99.654-99.655 261.279 0 360.935 99.654 99.654 261.22 99.654 360.934 0C729.363 444.134 729.363 282.569 629.649 182.914L629.649 182.914z"  horiz-adv-x="1029" />

    
    <glyph glyph-name="chazishanchudaibiankuang" unicode="&#59022;" d="M874.057143 746.029714c-100.000914 99.962514-231.032686 149.961143-362.066286 149.961143-130.998857 0-262.030629-49.998629-361.993143-149.961143-199.996343-199.9616-199.996343-524.097829 0-724.0576 99.962514-99.964343 230.996114-149.962971 361.993143-149.962971 131.0336 0 262.065371 49.998629 362.066286 149.962971C1073.982171 221.931886 1073.982171 546.068114 874.057143 746.029714zM848.199314 47.828114c-89.821257-89.786514-209.210514-139.249371-336.208457-139.249371-126.9632 0-246.352457 49.428114-336.137143 139.249371C86.034286 137.645714 36.571429 257.003886 36.571429 384c0 126.997943 49.462857 246.352457 139.282286 336.173714 89.784686 89.819429 209.175771 139.247543 336.137143 139.247543 126.997943 0 246.3872-49.462857 336.208457-139.247543C1033.517714 534.818743 1033.517714 233.181257 848.199314 47.828114zM796.450743 616.782629 744.735086 668.494629 512.027429 435.748571 279.279543 668.494629 227.567543 616.711314 460.242286 384 227.567543 151.288686 279.279543 99.505371 511.990857 332.2496 744.700343 99.505371 796.485486 151.288686 563.739429 384.036571Z"  horiz-adv-x="1025" />

    
    <glyph glyph-name="xin" unicode="&#58951;" d="M511.998-66.5c-10.589 0-21.187 2.499-30.647 7.226-0.538 0.267-1.458 0.7-2.726 1.303-86.698 41.184-172.197 95.96-240.748 154.241-61.759 52.506-110.94 108.47-146.178 166.338-44.48 73.045-67.034 149.546-67.034 227.379 0 163.749 133.227 296.967 296.984 296.967 69.872 0 137.312-24.795 190.344-69.074 53.036 44.278 120.481 69.074 190.359 69.074 163.758 0 296.984-133.219 296.984-296.967 0-77.844-22.56-154.357-67.053-227.412-35.246-57.873-84.438-113.842-146.21-166.352C717.51 37.941 632.02-16.824 545.35-57.983c-1.261-0.599-2.176-1.029-2.715-1.297C533.183-64.002 522.585-66.5 511.998-66.5zM321.649 706.954c-119.646 0-216.984-97.331-216.984-216.967 0-260.572 310.453-429.087 407.335-475.244 96.907 46.159 407.336 214.643 407.336 475.244 0 119.636-97.339 216.967-216.984 216.967-61.133 0-119.709-25.97-160.708-71.252l-29.653-32.749-29.651 32.75C441.343 680.984 382.773 706.954 321.649 706.954z"  horiz-adv-x="1024" />

    
    <glyph glyph-name="x" unicode="&#58938;" d="M510.952547 812c-282.190917 0-510.952547-228.761631-510.952547-510.952547 0-282.19296 228.761631-510.952547 510.952547-510.952547 282.19296 0 510.952547 228.759587 510.952547 510.952547C1021.905095 583.238369 793.143464 812 510.952547 812zM730.067394 148.170451c18.292101-18.292101 18.292101-47.947787 0-66.239888-18.292101-18.292101-47.947787-18.292101-66.239888 0l-152.877002 152.877002-152.877002-152.877002c-18.292101-18.292101-47.947787-18.292101-66.239888 0-18.292101 18.292101-18.292101 47.947787 0 66.239888l152.877002 152.877002-152.877002 152.877002c-18.292101 18.292101-18.292101 47.947787 0 66.239888 18.292101 18.292101 47.947787 18.292101 66.239888 0l152.877002-152.877002 152.877002 152.877002c18.292101 18.292101 47.947787 18.292101 66.239888 0 18.292101-18.292101 18.292101-47.947787 0-66.239888l-152.877002-152.877002L730.067394 148.170451z"  horiz-adv-x="1032" />

    
    <glyph glyph-name="check" unicode="&#58901;" d="M431.47 90.218c-11.365 0-22.332 4.378-30.589 12.286l-235.495 225.535c-17.64 16.894-18.245 44.891-1.35 62.528 16.894 17.64 44.891 18.245 62.532 1.351l201.055-192.552 364.692 443.171c15.519 18.86 43.39 21.567 62.253 6.049 18.861-15.519 21.568-43.39 6.048-62.251l-394.992-479.993c-7.821-9.504-19.248-15.319-31.534-16.047-0.874-0.052-1.748-0.078-2.621-0.078z"  horiz-adv-x="1024" />

    
    <glyph glyph-name="twitter3" unicode="&#59562;" d="M512 896c-282.76736 0-512-229.23264-512-512s229.23264-512 512-512 512 229.23264 512 512-229.23264 512-512 512zM766.48448 514.51904c0.24576-5.632 0.38912-11.30496 0.38912-16.97792 0-173.50656-132.07552-373.59616-373.57568-373.59616-74.15808 0-143.17568 21.72928-201.27744 59.00288 10.28096-1.20832 20.72576-1.8432 31.31392-1.8432 61.52192 0 118.12864 20.992 163.08224 56.2176-57.46688 1.04448-105.94304 39.0144-122.65472 91.17696 8.02816-1.536 16.24064-2.3552 24.69888-2.3552 11.9808 0 23.57248 1.61792 34.59072 4.608-60.06784 12.06272-105.32864 65.1264-105.32864 128.75776 0 0.55296 0 1.10592 0.02048 1.65888 17.69472-9.8304 37.94944-15.74912 59.47392-16.42496-35.2256 23.552-58.40896 63.73376-58.40896 109.30176 0 24.064 6.47168 46.61248 17.77664 66.00704 64.75776-79.44192 161.50528-131.70688 270.6432-137.19552-2.23232 9.60512-3.39968 19.64032-3.39968 29.92128 0 72.51968 58.79808 131.29728 131.29728 131.29728 37.76512 0 71.8848-15.95392 95.8464-41.472 29.9008 5.87776 57.99936 16.81408 83.37408 31.86688-9.80992-30.65856-30.6176-56.40192-57.73312-72.64256 26.56256 3.1744 51.87584 10.24 75.40736 20.66432-17.59232-26.33728-39.85408-49.4592-65.51552-67.97312z"  horiz-adv-x="1024" />

    
    <glyph glyph-name="ren1" unicode="&#59218;" d="M512.108 779.52c-85.774 0-166.315-22.488-236.01-61.847C130.374 635.355 32 479.143 32 300.011l0 0.001c0-264.881 214.939-479.555 480.108-479.532 265.17 0 480.107 214.675 480.084 479.556C992.192 564.846 777.229 779.52 512.108 779.52zM512.108-119.596c-232.027 0-420.087 187.868-420.11 419.582 0 231.715 188.083 419.558 420.11 419.558 232.002 0 420.062-187.844 420.062-419.558C932.17 68.247 744.086-119.596 512.108-119.596zM584.274 285.393c41.853 25.991 69.982 72.167 70.01 125.307 0 81.504-65.657 147.587-146.634 147.587S361.014 492.205 361.014 410.7c0-53.139 28.132-99.315 69.97-125.307-83.527-31.414-143.293-111.775-143.293-206.795 0-10.174 8.208-18.44 18.323-18.44s18.324 8.252 18.324 18.44c0 101.896 82.064 184.5 183.283 184.5 101.237 0 183.299-82.604 183.299-184.5 0-10.174 8.193-18.44 18.323-18.44 10.115 0 18.324 8.252 18.324 18.44C727.567 173.619 667.788 253.995 584.274 285.393zM397.65 410.685c0 61.142 49.241 110.705 109.973 110.705 60.735 0 109.972-49.578 109.973-110.705 0-61.128-49.24-110.69-109.973-110.69S397.65 349.558 397.65 410.685z"  horiz-adv-x="1025" />

    
    <glyph glyph-name="zuo1" unicode="&#58935;" d="M770.486122 683.999744 642.485867 812 130.485867 300 642.485867-212 770.486122-83.999744 386.486378 300Z"  horiz-adv-x="1024" />

    
    <glyph glyph-name="dizhi" unicode="&#58955;" d="M328.704 405.056c6.144-9.216 31.744-48.128 160.768-232.448l1.024-1.024c7.168-9.216 19.456-15.36 30.72-15.36 12.288 0 24.576 6.144 30.72 16.384 55.296 79.872 159.744 230.4 163.84 235.52l1.024 1.024c21.504 35.84 33.792 77.824 33.792 119.808 0 125.952-102.4 229.376-229.376 229.376s-229.376-102.4-229.376-229.376c0-44.032 12.288-86.016 36.864-123.904l0 0zM520.192 699.968c94.208 0 171.008-76.8 171.008-171.008 0-30.72-8.192-60.416-24.576-89.088-6.144-9.216-90.112-130.048-145.408-209.92-43.008 61.44-136.192 195.584-145.408 207.872-17.408 26.624-27.648 58.368-27.648 90.112 1.024 94.208 77.824 172.032 172.032 172.032zM520.192 400.96c69.632 0 126.976 57.344 126.976 126.976s-57.344 126.976-126.976 126.976c-69.632 0-126.976-57.344-126.976-126.976s56.32-126.976 126.976-126.976zM520.192 597.568c37.888 0 68.608-30.72 68.608-68.608 0-38.912-30.72-68.608-68.608-68.608-37.888 0-68.608 30.72-68.608 68.608s30.72 68.608 68.608 68.608zM1006.592 102.976l-142.336 275.456-117.76 0-46.08-59.392 128 0 130.048-248.832 2.048-2.048c7.168-9.216 7.168-21.504 2.048-31.744s-15.36-16.384-27.648-16.384l-844.8 0c-12.288 0-22.528 6.144-27.648 16.384-5.12 11.264-4.096 22.528 3.072 32.768l1.024 1.024 128 249.856 145.408 0-48.128 59.392-133.12 0-142.336-276.48c-19.456-27.648-21.504-62.464-6.144-91.136 16.384-30.72 46.08-49.152 80.896-49.152l844.8 0c33.792 0 64.512 18.432 79.872 49.152 13.312 29.696 10.24 64.512-9.216 91.136z"  horiz-adv-x="1024" />

    
    <glyph glyph-name="shang1" unicode="&#58917;" d="M998.4 179.2c-6.4 0-12.8 0-19.2 6.4L531.2 633.6c-6.4 6.4-25.6 6.4-32 0l-454.4-454.4c-6.4-6.4-25.6-6.4-32 0s-6.4 25.6 0 32l454.4 454.4c25.6 25.6 76.8 25.6 102.4 0l454.4-454.4c6.4-6.4 6.4-25.6 0-32C1011.2 179.2 1004.8 179.2 998.4 179.2z"  horiz-adv-x="1029" />

    
    <glyph glyph-name="xia1" unicode="&#58919;" d="M512 102.4c-19.2 0-38.4 6.4-51.2 19.2L6.4 576C0 588.8 0 601.6 6.4 614.4s25.6 6.4 32 0l454.4-454.4c6.4-6.4 25.6-6.4 32 0l454.4 454.4c6.4 6.4 25.6 6.4 32 0C1024 601.6 1024 588.8 1017.6 576L563.2 128C550.4 108.8 531.2 102.4 512 102.4z"  horiz-adv-x="1024" />

    
    <glyph glyph-name="you" unicode="&#58922;" d="M390.4-128c-6.4 0-12.8 0-19.2 6.4-6.4 6.4-6.4 25.6 0 32L832 364.8C832 371.2 838.4 377.6 838.4 384s0 12.8-6.4 19.2L377.6 851.2c-6.4 6.4-6.4 25.6 0 32C384 896 403.2 896 409.6 889.6l454.4-454.4c12.8-12.8 19.2-32 19.2-51.2s-6.4-38.4-19.2-51.2l-454.4-454.4C403.2-128 396.8-128 390.4-128z"  horiz-adv-x="1024" />

    
    <glyph glyph-name="zuo" unicode="&#58923;" d="M678.4-128c-6.4 0-12.8 0-19.2 6.4L211.2 332.8C192 345.6 185.6 364.8 185.6 384S192 422.4 211.2 435.2l454.4 454.4c6.4 6.4 25.6 6.4 32 0s6.4-25.6 0-32L243.2 403.2C236.8 396.8 236.8 390.4 236.8 384s0-12.8 6.4-19.2l454.4-454.4c6.4-6.4 6.4-25.6 0-32C691.2-128 684.8-128 678.4-128z"  horiz-adv-x="1024" />

    
    <glyph glyph-name="iconfontzuosss1" unicode="&#58950;" d="M259.698-103.843 747.541 384 259.698 871.843l8.222 8.22L763.984 384 267.92-112.063 259.698-103.843z"  horiz-adv-x="1024" />

    
    <glyph glyph-name="iconfontzuo1" unicode="&#58952;" d="M755.762-112.063 259.698 384 755.762 880.062l8.222-8.22L276.141 384l487.843-487.843L755.762-112.063z"  horiz-adv-x="1024" />

    
    <glyph glyph-name="shijian" unicode="&#58929;" d="M568.920607 389.100468c-1.114225 12.592068-6.305754 24.007498-14.253684 32.919248L554.666922 569.158748c0 23.563445-19.102454 42.666922-42.666922 42.666922-23.564468 0-42.666922-19.102454-42.666922-42.666922l0-147.138009c-9.008951-10.102712-14.492081-23.419179-14.492081-38.020739 0-31.051975 24.765662-56.301593 55.620167-57.120124L637.204463 200.136576c16.66221-16.66221 43.677808-16.66221 60.340018 0 16.66221 16.66221 16.66221 43.676784 0 60.340018L568.920607 389.100468zM512 896C229.230473 896 0 666.769527 0 384s229.230473-512 512-512 512 229.230473 512 512S794.769527 896 512 896zM113.959901 395.915757l0-23.830491c-0.116641 3.958618-0.182123 7.92849-0.182123 11.915757S113.84326 391.957139 113.959901 395.915757zM508.059799-14.197666l7.880402 0c-1.312718-0.012278-2.624413-0.024556-3.940201-0.024556S509.372517-14.209944 508.059799-14.197666zM554.666922-11.955916 554.666922 101.018679l-85.332822 0 0-112.974595C283.483694 7.841266 135.841266 155.483694 116.044084 341.333078l113.131139 0 0 85.332822-113.131139 0c19.797182 185.849383 167.43961 333.491812 353.288994 353.288994l0-110.54049 85.332822 0L554.665899 779.955916c185.849383-19.797182 333.491812-167.43961 353.288994-353.288994L797.572993 426.666922l0-85.332822 110.382923 0C888.158734 155.483694 740.516306 7.841266 554.666922-11.955916z"  horiz-adv-x="1025" />

    
    <glyph glyph-name="dingbu" unicode="&#59244;" d="M796.422846 371.521677 537.312727 630.814138c-6.368176 6.39914-14.688778 9.471415-22.976697 9.407768-1.119849 0.096331-2.07972 0.639914-3.19957 0.639914-4.67206 0-9.024163-1.087166-13.023626-2.879613-4.032146-1.536138-7.87163-3.872168-11.136568-7.135385L227.647682 371.72294c-12.512727-12.480043-12.54369-32.735385-0.032684-45.248112 6.239161-6.271845 14.432469-9.407768 22.65674-9.407768 8.191587 0 16.352211 3.135923 22.624056 9.34412L479.1356 532.573579l0-563.712619c0-17.695686 14.336138-31.99914 32.00086-31.99914s32.00086 14.303454 32.00086 31.99914L543.13732 534.1424l207.91012-207.73982c6.240882-6.271845 14.496116-9.440452 22.687703-9.440452s16.319527 3.103239 22.560409 9.311437C808.870206 338.722645 808.902889 359.010671 796.422846 371.521677zM864.00258 704 160.00258 704c-17.664722 0-32.00086 14.336138-32.00086 32.00086S142.337858 768 160.00258 768l704 0c17.695686 0 31.99914-14.336138 31.99914-32.00086S881.698266 704 864.00258 704z"  horiz-adv-x="1024" />

    
    <glyph glyph-name="weibiaoti15" unicode="&#58913;" d="M916 324l-576 0c-35.2 0-64 28.8-64 64 0 35.2 28.8 64 64 64l576 0c35.2 0 64-28.8 64-64C980 352.8 951.2 324 916 324zM916 652l-576 0c-35.2 0-64 28.8-64 64s28.8 64 64 64l576 0c35.2 0 64-28.8 64-64S951.2 652 916 652zM116-4c-35.2 0-64 28.8-64 64 0 35.2 28.8 64 64 64 35.2 0 64-28.8 64-64C180 24.8 151.2-4 116-4zM116 324c-35.2 0-64 28.8-64 64 0 35.2 28.8 64 64 64 35.2 0 64-28.8 64-64C180 352.8 151.2 324 116 324zM116 652c-35.2 0-64 28.8-64 64s28.8 64 64 64c35.2 0 64-28.8 64-64S151.2 652 116 652zM340 124l576 0c35.2 0 64-28.8 64-64 0-35.2-28.8-64-64-64l-576 0c-35.2 0-64 28.8-64 64C276 95.2 304.8 124 340 124z"  horiz-adv-x="1024" />

    
    <glyph glyph-name="pinterestpinterest30" unicode="&#58889;" d="M512 896C229.236364 896 0 666.763636 0 384s229.236364-512 512-512c282.763636 0 512 229.236364 512 512S794.763636 896 512 896zM559.104 228.957091c-37.841455 0-73.448727 20.898909-85.690182 44.637091 0 0-20.340364-82.478545-24.669091-98.397091-7.261091-26.903273-21.271273-53.76-34.257455-75.031273-18.525091-24.203636-39.889455-6.237091-42.449455 15.825455-0.837818 24.576 0.046545 53.666909 6.144 80.151273 6.749091 29.044364 45.102545 195.072 45.102545 195.072s-11.217455 22.853818-11.217455 56.645818c0 53.061818 30.114909 92.672 67.630545 92.672 31.883636 0 47.290182-24.482909 47.290182-53.76 0-32.721455-20.433455-81.687273-30.952727-127.022545-8.797091-37.981091 18.664727-68.933818 55.342545-68.933818 66.420364 0 111.197091 87.133091 111.197091 190.324364 0 78.475636-51.758545 137.169455-145.92 137.169455-106.356364 0-172.637091-80.989091-172.637091-171.426909 0-31.185455 8.983273-53.201455 23.133091-70.190545 6.469818-7.819636 7.400727-10.984727 5.026909-19.968-1.675636-6.609455-5.538909-22.434909-7.121455-28.718545-2.327273-9.076364-9.541818-12.288-17.547636-8.936727-49.012364 20.433455-71.819636 75.217455-71.819636 136.750545 0 101.701818 84.014545 223.650909 250.600727 223.650909 133.864727 0 221.975273-98.909091 221.975273-205.079273C748.311273 333.870545 671.837091 228.957091 559.104 228.957091z"  horiz-adv-x="1024" />

    
    <glyph glyph-name="xingxing" unicode="&#58899;" d="M2.198036 749.322359l-1.108241 16.882506-1.089821-17.302061 0.491187-7.79043 0-18.251689 0.024559-0.599657c0.010233-0.249687 0.25378-6.132674 0.581238-6.39464 0.007163-0.00614 0.013303-0.008186 0.020466-0.008186 0.321318 0 0.528026 6.009877 0.537236 6.271844l0.020466 0.592494 0 18.215874L2.198036 749.322359 2.198036 749.322359zM1.090819 761.771903l0.822738-12.538571-0.823761-13.1853-0.809435 12.856819L1.090819 761.771903 1.090819 761.771903zM1.54926 724.53686c-0.055259-1.357927-0.223081-4.848425-0.450255-4.680603-0.231267 0.185218-0.419556 3.669576-0.484024 5.033643L0.614981 739.134323l0.474814-7.544837 0.459464 7.354502L1.54926 724.53686 1.54926 724.53686zM1.54926 724.53686M863.552726-54.155155c-4.690836 0-9.4093 1.106194-13.775748 3.345188l-243.403612 126.420271-263.037788-126.808104c-10.190083-4.964058-22.175045-3.704368-31.135114 3.163039-8.964162 6.845918-13.295817 18.141172-11.238972 29.225625l53.966099 288.643979L166.682228 471.532589c-7.381108 7.915273-9.893324 19.212574-6.605442 29.521361 3.316535 10.30367 11.922541 18.043958 22.557762 20.163225l262.262122 52.712549L585.542944 806.551782c5.471618 8.901741 15.155165 15.655562 25.577538 15.655562l0.717338 0c10.670014 0 20.437471-7.528464 25.52228-16.910135l134.609791-248.282736 257.20699-35.163871c10.732435-1.436722 19.846-8.759501 23.818475-18.823718 3.971451-10.07138 2.153036-21.578458-4.663206-29.945009L895.194377 285.850609c-10.485819-12.81691-29.249161-14.641465-42.037419-4.239558-12.789281 10.485819-14.676257 29.253254-4.245697 42.008766l119.31341 145.849786-219.290425 29.698392c-9.44307 1.25355-17.723663 6.963599-22.262026 15.331173L609.628502 729.787444 489.180246 531.676387c-4.359284-7.140631-11.472286-12.127202-19.628036-13.768585l-222.641753-44.762483 162.04156-173.577291c6.485715-6.935969 9.259898-16.555048 7.528464-25.879414l-45.896306-245.438968 223.324298 107.693768c8.521071 4.092201 18.410302 3.972475 26.77583-0.387833l182.632527-94.904487L694.278438 295.829891c-6.479575 15.182794 0.598634 32.719192 15.746636 39.232536 15.029298 6.486738 32.719192-0.535189 39.234583-15.746636L891.046917-12.504546c4.957919-11.593036 2.056845-25.072025-7.175423-33.643238C878.222843-51.437254 870.905181-54.155155 863.552726-54.155155M522.949351 316.274526c-8.128121 0-16.260335 3.282766-22.1423 9.824763l-67.798129 74.825173c-11.089569 12.219299-10.162454 31.135114 2.092661 42.22059 12.219299 11.084453 31.100322 10.126638 42.191938-2.092661l67.797106-74.854848c11.085476-12.219299 10.156314-31.100322-2.090615-42.191938C537.287917 318.837908 530.118634 316.274526 522.949351 316.274526"  horiz-adv-x="1122" />

    
    <glyph glyph-name="fenxiang" unicode="&#58931;" d="M778.602987 242.274138c-43.735084 0-82.508155-20.923542-107.114576-53.234435l-283.026028 168.531368c3.213181 12.398378 5.100158 25.314549 5.100158 38.715767 0 3.89061-0.302899 7.686053-0.573051 11.494799l283.161105 170.612773c24.713868-28.935006 61.412698-47.344285 102.452393-47.344285 74.43427 0 134.771473 60.338227 134.771473 134.76738 0 74.42506-60.338227 134.763286-134.771473 134.763286-74.424037 0-134.759193-60.334133-134.759193-134.763286 0-14.767332 2.445702-28.916587 6.837732-42.222637L369.926214 478.01421c-27.26497 43.37795-75.391061 72.290443-130.376373 72.290443-85.053118 0-154.017816-68.959581-154.017816-154.017816s68.963675-154.012699 154.017816-154.012699c45.589314 0 86.426395 19.925818 114.624621 51.3976L648.347364 141.523503c-2.829442-10.872628-4.490268-22.23235-4.490268-34.012651 0-74.43427 60.34232-134.76738 134.76738-134.76738 74.429153 0 134.763286 60.33311 134.763286 134.76738C913.388786 181.940005 853.037257 242.274138 778.602987 242.274138L778.602987 242.274138 778.602987 242.274138zM778.602987 242.274138"  horiz-adv-x="1024" />

    
    <glyph glyph-name="jian" unicode="&#58969;" d="M882.83184 331.526905 145.027048 331.526905c-30.549783 0-55.335283 25.201985-55.335283 55.770188 0 30.568203 24.785499 55.770188 55.335283 55.770188l737.804792 0c30.549783 0 55.335283-25.201985 55.335283-55.770188C938.167123 356.72889 913.381623 331.526905 882.83184 331.526905z"  horiz-adv-x="1024" />

    
    <glyph glyph-name="iconinstagram2" unicode="&#58885;" d="M720.989 874.386h-421.236c-155.828 0-282.148-126.321-282.148-282.148v-421.235c0-155.828 126.321-282.148 282.148-282.148h421.235c155.828 0 282.148 126.321 282.148 282.148v421.234c0.001 155.828-126.321 282.149-282.147 282.149zM511.934 129.236c-140.701 0-254.764 114.063-254.764 254.761 0 140.702 114.062 254.764 254.764 254.764 140.7 0 254.761-114.061 254.761-254.764 0-140.699-114.062-254.761-254.761-254.761zM773.321 587.605c-32.917 0-59.602 26.685-59.602 59.602s26.687 59.602 59.602 59.602 59.602-26.685 59.602-59.602-26.685-59.602-59.602-59.602zM511.934 547.357c-90.219 0-163.357-73.137-163.357-163.357 0-90.218 73.137-163.356 163.357-163.356 90.218 0 163.356 73.137 163.356 163.356 0 90.219-73.135 163.357-163.356 163.357z"  horiz-adv-x="1024" />

    
    <glyph glyph-name="sanjiaoleft" unicode="&#59062;" d="M268.025732 384.002048l487.950584-365.02634L755.976316 749.024292 268.025732 384.002048"  horiz-adv-x="1024" />

    
    <glyph glyph-name="sanjiaoright" unicode="&#59063;" d="M755.974268 384 268.025732 749.024292l0-730.048584L755.974268 384"  horiz-adv-x="1024" />

    
    <glyph glyph-name="gouwu" unicode="&#58936;" d="M513.224386 657.458115l-0.122797 0c-61.96733 0-114.88761-60.600193-135.953392-145.867182l272.027533 0C628.166231 596.857922 575.314513 657.458115 513.224386 657.458115zM513.284761 892.930081C232.88863 892.930081 5.660418 665.638425 5.660418 385.305739c0-280.331663 227.228211-507.624343 507.624343-507.624343 280.397155 0 507.624343 227.291656 507.624343 507.624343C1020.909104 665.638425 793.680892 892.930081 513.284761 892.930081zM196.01993 36.31637l51.123354 475.274564 69.77004 0c26.894534 129.263016 104.601336 222.705198 196.311061 222.705198 91.829452 0 169.537278-93.442182 196.430788-222.705198l46.658669 0 74.236771-475.274564L196.01993 36.31637z"  horiz-adv-x="1024" />

    
    <glyph glyph-name="xin1" unicode="&#58933;" d="M700.856275 740.457458c-74.768891 0-144.295384-72.696696-190.046381-127.260405C465.073224 667.773042 395.563104 740.457458 320.754305 740.457458c-134.789892 0-244.443291-105.780185-244.443291-235.799424 0-77.56968 39.277562-131.98808 70.844511-175.712931 91.752704-126.998439 322.464249-285.038872 332.234777-291.701618 9.410324-6.414083 20.424168-9.629311 31.401174-9.629311 11.005658 0 21.998013 3.215228 31.397081 9.629311 9.782807 6.662747 240.514819 164.703179 332.23887 291.701618 31.586392 43.723827 70.873164 98.143251 70.873164 175.712931C945.299567 634.678296 835.645145 740.457458 700.856275 740.457458L700.856275 740.457458zM700.856275 740.457458"  horiz-adv-x="1024" />

    
    <glyph glyph-name="fenxiang1" unicode="&#59011;" d="M768 173.2C768 147.344 751.712 112 725.84 112l-468.64 0C231.328 112 208 147.344 208 173.2L208 454.4c0 25.904 23.328 41.6 49.216 41.6l47.728 0 107.824 144L116.624 640C90.736 640 64 620.88 64 594.992l0-562.384C64 6.752 90.736-16 116.624-16l749.792 0C892.32-16 912 6.752 912 32.608L912 373.664l-144-122.832L768 173.2zM375.248 259.28c0.72-3.968 1.872-7.76 2.72-11.696 41.04 118.896 131.216 207.376 242.88 227.968C641.776 479.392 688 480.48 688 479.44L688 320l37.84 0 234.336 243.712L725.84 784 688 784l0-135.568c0-0.192-39.056-1.456-56.496-4.672C459.136 611.968 341.936 439.856 375.248 259.28z"  horiz-adv-x="1024" />

    
    <glyph glyph-name="xia" unicode="&#58920;" d="M103.968 746.225h821.243c45.467 0 82.191-35.892 82.191-80.688 0-20.786-8.127-39.625-21.134-53.893l-406.118-533.779c-27.222-35.363-78.468-42.801-114.638-15.957-6.334 4.581-11.867 9.956-16.209 15.957l-410.757 539.453c-26.902 35.363-19.655 86.091 16.48 112.607 14.832 11.093 31.857 16.218 48.953 16.218v0 0 0zM103.968 746.225z"  horiz-adv-x="1024" />

    
    <glyph glyph-name="zhuxiao" unicode="&#58934;" d="M689.284375 412.662749 159.77871 412.662749 341.9115 593.69958 306.458104 629.151953 62.43588 386.225687 308.653092 141.104433 344.106488 176.557829 159.77871 359.788624 689.284375 359.788624ZM417.410881 782.644506l445.777895 0c25.931551 0 47.056641-22.272215 47.056641-49.675277l0-695.651373c0-27.404085-21.127138-49.704953-47.056641-49.704953L417.410881-12.387097l0-49.675277 445.777895 0c51.862078 0 94.11533 44.573082 94.11533 99.380229L957.304105 732.969229c0 54.806124-42.253252 99.351577-94.11533 99.351577L417.410881 832.320806 417.410881 782.644506z"  horiz-adv-x="1024" />

    
    <glyph glyph-name="wenhao" unicode="&#58945;" d="M512.000407 896.000359c-282.717778 0-512.00004-229.282063-512.00004-512.00004s229.282063-512.00004 512.00004-512.00004 512.00004 229.282063 512.00004 512.00004S794.718385 896.000359 512.000407 896.000359L512.000407 896.000359 512.000407 896.000359zM508.70808 25.719176c-41.667931 0-75.570556 33.190278-75.570556 74.035627 0 40.839557 33.781603 74.034429 75.570556 74.034429 41.660942 0 75.562168-33.195071 75.562168-74.034429C584.270248 58.909454 550.488445 25.719176 508.70808 25.719176L508.70808 25.719176 508.70808 25.719176zM711.620769 444.61481c-14.826856-23.304509-46.259336-54.964652-94.512322-95.102448-24.954268-20.713744-40.487479-37.426209-46.49299-50.139793-5.999521-12.591564-8.827336-35.194512-8.241802-67.799057l-107.57439 0c-0.235851 15.420578-0.470504 24.839438-0.470504 28.253984 0 34.83764 5.764668 63.436314 17.299197 85.918441 11.533131 22.481927 34.602988 47.787075 69.092144 75.799217 34.487958 28.131765 55.200503 46.492791 61.913368 55.200503 10.356273 13.769621 15.648041 28.954348 15.648041 45.436953 0 22.949035-9.291848 42.603147-27.65527 59.079762-18.361026 16.361585-43.315293 24.603387-74.504933 24.603387-30.132404 0-55.322523-8.592683-75.564564-25.661821-20.245437-17.062148-37.665455-54.73-41.786356-78.034509-3.88505-22.011423-109.931701-31.310461-108.638615 13.299117s24.483764 92.983385 64.264888 128.056876c39.787115 35.074689 92.044774 52.615529 156.660343 52.615529 68.036306 0 122.057355-17.775492 162.311379-53.316092 40.252826-35.545193 60.264808-76.861245 60.264808-124.056796C733.747022 492.638934 726.333794 467.920518 711.620769 444.61481L711.620769 444.61481 711.620769 444.61481z"  horiz-adv-x="1024" />

    
    <glyph glyph-name="twitter" unicode="&#58883;" d="M544.060-63.267h-64.949c-228.634 0-415.697 187.064-415.697 415.697v64.949c0 228.634 187.064 415.697 415.697 415.697h64.949c228.634 0 415.697-187.064 415.697-415.697v-64.949c-0.001-228.634-187.065-415.697-415.697-415.697zM749.737 531.369c-17.594-7.805-36.513-13.088-56.371-15.459 20.269 12.147 35.836 31.387 43.156 54.312-18.965-11.257-39.963-19.422-62.322-23.822-17.893 19.082-43.406 30.996-71.636 30.996-54.199 0-98.136-43.943-98.136-98.157 0-7.694 0.861-15.19 2.543-22.373-81.57 4.092-153.876 43.174-202.284 102.558-8.443-14.498-13.285-31.356-13.285-49.348 0-34.049 17.326-64.096 43.656-81.697-16.086 0.51-31.221 4.924-44.447 12.276-0.010-0.41-0.010-0.82-0.010-1.24 0-47.557 33.822-87.23 78.719-96.248-8.234-2.242-16.905-3.448-25.851-3.448-6.332 0-12.475 0.616-18.466 1.768 12.483-39.002 48.726-67.38 91.673-68.17-33.582-26.334-75.898-42.024-121.884-42.024-7.924 0-15.736 0.461-23.408 1.371 43.434-27.845 95.015-44.105 150.444-44.105 180.505 0 279.221 149.576 279.221 279.294 0 4.262-0.090 8.494-0.278 12.707 19.178 13.836 35.813 31.116 48.967 50.807z"  horiz-adv-x="1024" />

    
    <glyph glyph-name="pinterest" unicode="&#58888;" d="M544.060-63.267h-64.949c-228.634 0-415.697 187.064-415.697 415.697v64.949c0 228.634 187.064 415.697 415.697 415.697h64.949c228.634 0 415.697-187.064 415.697-415.697v-64.949c-0.001-228.634-187.065-415.697-415.697-415.697zM373.943 347.087c11.447-6.379 18.646-9.781 21.83 1.398 3.183 11.179 4.093 14.905 5.457 25.151 1.365 10.247-0.783 10.585-8.186 20.959-8.641 12.109-22.841 47.404-4.092 100.603 21.83 61.945 81.862 88.028 136.436 83.836 54.575-4.192 103.636-32.867 105.057-106.192 1.362-70.317-22.285-110.384-32.745-122.958-10.461-12.575-38.472-41.029-73.676-25.152-43.888 19.795-20.466 62.411-16.372 79.644 4.092 17.233 23.847 56.099 13.643 89.424-6.778 22.137-38.214 31.689-54.575 19.561-23.876-17.698-29.52-34.969-32.745-58.685-3.78-27.793 9.551-54.493 9.551-54.493s-28.153-114.118-34.11-145.315c-7.959-41.685-10.792-68.867-2.729-106.192 1.958-9.060 6.701-12.147 12.279-4.192 13.272 18.925 37.52 57.287 47.753 102 7.329 32.020 15.008 61.479 15.008 61.479s17.737-30.74 53.211-34.931c35.474-4.192 74.129 0.932 115.97 46.11 41.84 45.178 50.321 132.182 45.024 169.069-6.822 47.507-46.465 120.442-132.344 135.534-95.686 16.816-150.115-22.775-163.723-33.534-25.924-20.493-68.882-61.066-72.312-128.548-4.32-84.999 30.926-105.958 46.388-114.575z"  horiz-adv-x="1024" />

    
    <glyph glyph-name="person" unicode="&#58905;" d="M938.557 99.133l-225.997 88.074c0 0-43.1 16.732-59.843 33.188-10.762 10.578-9.984 35.533-0.461 67.41s125.379 161.423 125.379 279.101c0 181.74-119.48 329.093-266.854 329.093-147.364 0-266.834-147.354-266.834-329.103 0-112.712 103.24-247.081 115.978-271.503 12.749-24.422 9.646-61.645-0.42-72.919-15.114-16.937-70.339-33.915-70.339-33.915l-203.735-90.798c-47.596-17.101-84.89-61.993-84.89-112.64v-24.023c0-55.276 44.892-89.098 100.065-89.098h822.774c55.183 0 100.076 33.823 100.076 89.098v24.023c0 50.657-37.294 96.922-84.9 114.012v0zM938.557 99.133z"  horiz-adv-x="1024" />

    
    <glyph glyph-name="you1" unicode="&#58954;" d="M344.870328 895.998977 217.494504 770.111965 630.305836 387.887284 233.230892-4.672108 352.738011-127.998977 869.369189 382.719928 344.870328 895.998977Z"  horiz-adv-x="1024" />

    
    <glyph glyph-name="jia1" unicode="&#58911;" d="M832 320 576 320 576 64C576 28.672 547.328 0 512 0 476.608 0 448 28.672 448 64L448 320 192 320C156.608 320 128 348.672 128 384 128 419.328 156.608 448 192 448L448 448 448 704C448 739.328 476.608 768 512 768 547.328 768 576 739.328 576 704L576 448 832 448C867.328 448 896 419.328 896 384 896 348.672 867.328 320 832 320Z"  horiz-adv-x="1024" />

    
    <glyph glyph-name="shang" unicode="&#59007;" d="M128-0.448c-88 0-121.12 60.608-73.616 134.672l371.216 578.688c47.52 74.064 125.264 74.064 172.784 0l371.216-578.688C1017.12 60.16 984-0.448 896-0.448L128-0.448z"  horiz-adv-x="1024" />

    
    <glyph glyph-name="yuan" unicode="&#58967;" d="M512 384m-512 0a100 100 0 1 0 1024 0 100 100 0 1 0-1024 0Z"  horiz-adv-x="1024" />

    
    <glyph glyph-name="facebook" unicode="&#58971;" d="M512.262115-63.556658c247.175132 0 447.569968 200.366167 447.569968 447.556658 0 247.16387-200.394836 447.556658-447.569968 447.556658-247.17718 0-447.556658-200.392788-447.556658-447.556658-0.001024-247.190491 200.378454-447.556658 447.556658-447.556658M404.292383 459.783896h46.269378v44.969044c0 19.828563 0.499656 50.408946 14.904699 69.347753 15.172957 20.05689 36.000832 33.690947 71.826579 33.690946 58.371702 0 82.952117-8.326235 82.952118-8.326235l-11.564785-68.550147s-19.285904 5.576079-37.275569 5.57608c-17.99888 0-34.111763-6.449454-34.111764-24.438095v-52.269346h73.791416l-5.152191-66.958004h-68.639225v-232.604221h-86.731278V392.825892h-46.269378v66.958004z"  horiz-adv-x="1024" />

    
    <glyph glyph-name="dingdan" unicode="&#59049;" d="M844.229671 896H179.770329A99.52243 99.52243 0 0 1 80.364557 796.594228v-825.188456A99.52243 99.52243 0 0 1 179.770329-128h664.459342A99.52243 99.52243 0 0 1 943.635443-28.594228V796.594228A99.52243 99.52243 0 0 1 844.229671 896zM506.81519 439.736709H269.610127a25.924051 25.924051 0 1 0 0 51.848101h237.205063a25.924051 25.924051 0 1 0 0-51.848101z m253.290937-222.596861L702.049215 153.275949H737.539241a12.962025 12.962025 0 1 0 0-25.92405h-50.551899v-38.886076h50.551899a12.962025 12.962025 0 1 0 0-25.924051h-50.551899v-36.293671a12.962025 12.962025 0 0 0-25.924051 0v36.293671h-50.551899a12.962025 12.962025 0 1 0 0 25.924051h50.551899v38.886076h-50.551899a12.962025 12.962025 0 1 0 0 25.92405h33.571646l-56.281114 64.032405a12.962025 12.962025 0 0 0 19.443038 17.109874l65.652658-74.661266 68.024709 74.81681a12.962025 12.962025 0 0 0 19.183798-17.433924zM753.093671 597.873418H269.610127a25.924051 25.924051 0 1 0 0 51.848101h483.483544a25.924051 25.924051 0 1 0 0-51.848101z"  horiz-adv-x="1024" />

    
    <glyph glyph-name="huangguan" unicode="&#58946;" d="M958.693177 514.404121c0 30.164397-11.755084 58.529768-33.076074 79.843533a112.059832 112.059832 0 0 1-79.785733 33.083299 112.153757 112.153757 0 0 1-79.857984-33.083299 112.160982 112.160982 0 0 1-33.061624-79.843533c0-30.128272 11.740634-58.464743 33.076074-79.800184 4.414478-4.421703 9.197432-8.308756 14.168235-11.892359-37.916828-37.938503-98.115572-48.580936-147.281732-22.086841-37.411077 20.15054-66.592874 55.148465-77.950583 92.964143-4.920229 22.794892 7.369505 79.265533 8.026981 81.013985 35.026826 19.189614 58.833218 56.420066 58.833218 99.105397 0 30.106597-11.740634 58.435843-33.076074 79.778509a112.081507 112.081507 0 0 1-79.771283 33.076074 112.182657 112.182657 0 0 1-79.857984-33.076074 112.081507 112.081507 0 0 1-33.076074-79.778509 112.204332 112.204332 0 0 1 33.076074-79.872433 112.702858 112.702858 0 0 1 30.214972-21.487166c0.238425-0.4913 0.4335-0.989826 0.693601-1.466676 2.413152-4.486728 12.051309-55.09789 5.982304-77.336457-11.516658-38.198603-41.117505-73.731179-79.027108-94.156269-50.705087-27.288845-111.438482-16.711437-150.113935 22.758767 29.015621 20.446765 48.046285 54.136965 48.046286 92.248868 0 30.207747-11.711734 58.573118-32.989375 79.843533-21.320991 21.335441-49.686361 33.083299-79.857983 33.083299s-58.529768-11.747859-79.857983-33.083299a112.204332 112.204332 0 0 1-33.076075-79.843533 112.132082 112.132082 0 0 1 33.090525-79.800184 112.160982 112.160982 0 0 1 48.47256-28.596571l94.279094-391.327962a43.328357 43.328357 0 0 1 42.136231-33.198899h463.71529a43.335582 43.335582 0 0 1 42.13623 33.198899l94.293544 391.392987c46.991434 13.648035 81.476385 56.998067 81.476385 108.338955z"  horiz-adv-x="1024" />

    
    <glyph glyph-name="caidan" unicode="&#58910;" d="M290.1 832.1H96.7c-16.6 0-30-13.4-30-30V606c0-16.6 13.4-30 30-30h193.4c16.6 0 30 13.4 30 30V802.1c0 16.6-13.5 30-30 30zM290.1 510.7H96.7c-16.6 0-30-13.4-30-30v-196.1c0-16.6 13.4-30 30-30h193.4c16.6 0 30 13.4 30 30V480.7c0 16.6-13.5 30-30 30zM290.1 192.4H96.7c-16.6 0-30-13.4-30-30v-196.1c0-16.6 13.4-30 30-30h193.4c16.6 0 30 13.4 30 30V162.4c0 16.5-13.5 30-30 30zM607 832.2H413.7c-16.6 0-30-13.4-30-30V606c0-16.6 13.4-30 30-30H607c16.6 0 30 13.4 30 30V802.2c0 16.5-13.4 30-30 30zM607 510.7H413.7c-16.6 0-30-13.4-30-30v-196.1c0-16.6 13.4-30 30-30H607c16.6 0 30 13.4 30 30V480.7c0 16.6-13.4 30-30 30zM607 192.4H413.7c-16.6 0-30-13.4-30-30v-196.1c0-16.6 13.4-30 30-30H607c16.6 0 30 13.4 30 30V162.4c0 16.5-13.4 30-30 30zM927.9 832.2H734.6c-16.6 0-30-13.4-30-30V606c0-16.6 13.4-30 30-30H928c16.6 0 30 13.4 30 30V802.2c-0.1 16.5-13.5 30-30.1 30zM927.9 510.7H734.6c-16.6 0-30-13.4-30-30v-196.1c0-16.6 13.4-30 30-30H928c16.6 0 30 13.4 30 30V480.7c-0.1 16.6-13.5 30-30.1 30zM927.9 192.4H734.6c-16.6 0-30-13.4-30-30v-196.1c0-16.6 13.4-30 30-30H928c16.6 0 30 13.4 30 30V162.4c-0.1 16.5-13.5 30-30.1 30z"  horiz-adv-x="1024" />

    
    <glyph glyph-name="gouhao" unicode="&#58924;" d="M512 895.6672C229.8368 895.6672 0.256 666.0864 0.256 383.9232c0-282.1376 229.5808-511.744 511.744-511.744 282.1632 0 511.744 229.6064 511.744 511.744C1023.744 666.112 794.1632 895.6672 512 895.6672zm0-969.2928c-252.3136 0-457.5488 205.2608-457.5488 457.5488C54.4512 636.2368 259.6864 841.472 512 841.472c252.3136 0 457.5488-205.2352 457.5488-457.5488 0-252.288-205.2352-457.5488-457.5488-457.5488zM786.5856 594.6624 424.5504 232.6272l-187.136 187.136a28.0064 28.0064 0 0 0-39.6032-39.6032l206.9504-206.9504c10.9312-10.9312 28.672-10.9312 39.6032 0l381.824 381.8496a28.0064 28.0064 0 1 0-39.6032 39.6032z"  horiz-adv-x="1024" />

    
    <glyph glyph-name="guanlizhongxin" unicode="&#58892;" d="M978.944 704L832 850.944c-39.424 39.424-103.936 39.424-143.36 0l-146.944-146.944c-39.424-39.424-39.424-103.936 0-143.36l146.944-146.944c39.424-39.424 103.936-39.424 143.36 0l146.944 146.944c39.424 39.424 39.424 103.936 0 143.36zM930.304 588.8L803.84 462.336c-24.576-24.576-65.024-24.576-89.6 0L587.776 588.8c-24.576 24.576-24.576 65.024 0 89.6l126.464 126.464c24.576 24.576 65.024 24.576 89.6 0l126.464-126.464c24.576-24.576 24.576-64.512 0-89.6zM512-49.152c0-33.792 27.648-61.44 61.44-61.44h311.296c33.792 0 61.44 27.648 61.44 61.44v311.296c0 33.792-27.648 61.44-61.44 61.44H512v-372.736zM15.36-49.152c0-33.792 27.648-61.44 61.44-61.44h311.296c33.792 0 61.44 27.648 61.44 61.44v372.736H76.8c-33.792 0-61.44-27.648-61.44-61.44v-311.296zM15.36 440.832c0-33.792 27.648-61.44 61.44-61.44h372.736V752.128c0 33.792-27.648 61.44-61.44 61.44H76.8c-33.792 0-61.44-27.648-61.44-61.44v-311.296z"  horiz-adv-x="1024" />

    
    <glyph glyph-name="ziyuan" unicode="&#58970;" d="M512 896a512 512 0 1 1 512-512A512 512 0 0 1 512 896z m345.344-334.848l-399.36-414.464a44.288 44.288 0 0 0-67.84-5.12 43.264 43.264 0 0 0-3.328 5.12l-220.16 228.096a47.36 47.36 0 0 0 0 65.28 43.264 43.264 0 0 0 62.72 0l192.768-199.936L793.6 626.176a43.264 43.264 0 0 0 62.72 0 47.36 47.36 0 0 0 1.024-65.024z"  horiz-adv-x="1024" />

    
    <glyph glyph-name="youxiang" unicode="&#59044;" d="M999.052818 747.229698l0-545.92567c0-5.447059-0.654916-10.864442-1.755993-16.19996-0.005117-0.024559-0.010233-0.048095-0.01535-0.072655-0.060375-0.296759-0.122797-0.593518-0.184195-0.890276-7.77815-37.140898-40.614-63.690578-78.561263-63.690578L121.942283 120.450559c-27.90556 0-54.733579 11.593036-73.253374 32.468482-0.525979 0.592494-1.046842 1.193175-1.563612 1.801019-1.281179 1.508353-2.499937 3.045359-3.66139 4.611018-11.632945 15.685237-17.637706 34.837436-17.637706 54.366212L25.826202 732.355943c0 30.839379 20.009729 58.208726 49.479925 67.296709 0.242524 0.074701 0.485047 0.148379 0.728594 0.222057 0.065492 0.019443 0.130983 0.039909 0.196475 0.059352 11.293207 3.384074 23.052019 4.948709 34.841529 4.948709 279.856849 0 559.713698 0 839.570547 0 1.286296-0.484024 2.534729-1.194198 3.864004-1.418302 24.204262-4.082992 38.524408-18.160615 43.014676-42.293245 0.00307-0.016373 0.00614-0.031722 0.00921-0.048095C998.408135 756.532575 999.052818 751.902114 999.052818 747.229698zM512.438998 394.93812c142.642744 120.048143 284.940634 239.805668 428.661943 360.761484-62.86784 3.666506-844.296175 1.51347-853.212242-2.408863C229.372038 633.866814 370.676297 514.596384 512.438998 394.93812zM639.598096 437.841256c-36.509519-30.772864-72.434729-61.069891-108.379383-91.342358-13.062504-11.000542-24.362874-11.08036-37.256532-0.230244-15.321964 12.892635-30.581506 25.858948-45.87891 38.780235-20.146852 17.017582-40.304961 34.023908-60.690244 51.230802-95.138824-88.196715-189.837626-175.98513-284.536428-263.774569 0.328481-0.733711 0.656963-1.467421 0.986467-2.200108 276.178063 0 552.35715 0 829.995471 0C835.498812 259.719462 737.872331 348.485135 639.598096 437.841256zM349.922624 467.989903C257.971399 545.677263 166.984129 622.549048 74.972529 700.287573c0-162.924673 0-324.175217 0-487.147986C167.17344 298.601005 258.216993 382.988973 349.922624 467.989903zM677.213809 469.527932c91.151-82.864266 181.439352-164.942633 272.816502-248.012583 0 160.114674 0 318.132594 0 477.850226C858.704326 622.427274 768.470209 546.407903 677.213809 469.527932z"  horiz-adv-x="1024" />

    
    <glyph glyph-name="suo" unicode="&#58880;" d="M334.463 436.988h355.073V570.14q0 73.5-52.018 125.519t-125.519 52.018-125.519-52.018-52.018-125.519v-133.152z m576.995-66.577v-399.458q0-27.74-19.44-47.136t-47.136-19.44H179.121q-27.74 0-47.136 19.44t-19.44 47.136V370.411q0 27.74 19.44 47.136t47.136 19.44h22.192V570.139q0 127.605 91.565 219.124t219.124 91.565 219.124-91.565 91.565-219.124v-133.152h22.192q27.74 0 47.136-19.44t19.44-47.136z"  horiz-adv-x="1024" />

    
    <glyph glyph-name="cha" unicode="&#58881;" d="M512 768c-211.2 0-384-172.8-384-384s172.8-384 384-384 384 172.8 384 384-172.8 384-384 384z m185.6-524.8l-44.8-44.8L512 339.2 371.2 198.4l-44.8 44.8L467.2 384 326.4 524.8l44.8 44.8L512 428.8l140.8 140.8 44.8-44.8L556.8 384l140.8-140.8z"  horiz-adv-x="1024" />

    
    <glyph glyph-name="wujiaoxing" unicode="&#59143;" d="M565.241483 861.381279l112.046913-237.531776a59.830876 59.830876 0 0 1 44.793169-34.042809l250.841747-38.074193c48.632584-7.422868 68.213597-70.005324 32.954974-105.96784l-181.540315-184.931798a63.798271 63.798271 0 0 1-17.021404-54.967617l42.809471-261.080186c8.318731-50.744262-42.681491-89.458358-86.258845-65.526007l-224.285797 123.245205a57.015305 57.015305 0 0 1-55.287568 0l-224.349787-123.245205c-43.513364-23.93235-94.513587 14.781746-86.194855 65.526007l42.873461 261.080186a63.734281 63.734281 0 0 1-17.149384 54.967617L18.060928 445.764661C-17.261685 481.727177 2.191348 544.309633 50.951912 551.732501l250.777757 38.074193a59.766886 59.766886 0 0 1 44.793169 34.042809L458.569751 861.381279a58.3591 58.3591 0 0 0 106.607742 0"  horiz-adv-x="1024" />

    
    <glyph glyph-name="dianhua" unicode="&#58953;" d="M981.504 543.890286c-122.733714 41.252571-73.508571 119.954286-147.236571 150.454857-125.074286 51.858286-245.394286 50.176-245.394286 50.176s-119.808 1.243429-245.321143-50.176c-73.874286-30.281143-24.502857-109.202286-147.236571-150.454857-129.755429-43.666286-197.485714 20.333714-196.096 99.328 0.950857 52.955429 32.841143 112.64 97.938285 151.405714C264.777143 893.952 588.946286 894.976 588.946286 894.976s324.096-1.024 490.715428-100.352c64.585143-38.473143 96.548571-97.645714 97.865143-150.308571 2.121143-79.506286-65.609143-144.237714-196.022857-100.425143z m-588.873143 50.176h98.084572v-50.176h196.315428v50.176h98.157714v-50.176l294.473143-351.085715v-200.557714c0-55.369143-43.958857-100.352-98.157714-100.352H196.315429c-54.198857 0-98.157714 44.982857-98.157715 100.352V192.804571l294.473143 351.085715v50.176z m196.242286-601.819429c108.397714 0 196.315429 89.819429 196.315428 200.557714 0 110.811429-87.917714 200.630857-196.315428 200.630858-108.397714 0-196.242286-89.819429-196.242286-200.630858 0-110.738286 87.844571-200.557714 196.242286-200.557714z m0 300.909714c54.198857 0 98.157714-44.982857 98.157714-100.352 0-55.369143-43.958857-100.205714-98.157714-100.205714-54.125714 0-98.157714 44.836571-98.157714 100.205714 0 55.369143 44.032 100.352 98.157714 100.352z"  horiz-adv-x="1243" />

    
    <glyph glyph-name="yuanxingjiahao-fill" unicode="&#58990;" d="M512 832c-247.296 0-448-200.704-448-448s200.704-448 448-448 448 200.704 448 448-200.704 448-448 448z m207.872-479.744h-176.128v-176.128c0-17.92-14.336-31.744-31.744-31.744s-31.744 14.336-31.744 31.744v176.128H304.128c-17.92 0-31.744 14.336-31.744 31.744s14.336 31.744 31.744 31.744h176.128V591.872c0 17.92 14.336 31.744 31.744 31.744s31.744-14.336 31.744-31.744v-176.128h176.128c17.92 0 31.744-14.336 31.744-31.744s-13.824-31.744-31.744-31.744z"  horiz-adv-x="1024" />

    
    <glyph glyph-name="fenxiang2" unicode="&#59502;" d="M763.84 0c-47.128 0-85.333 38.205-85.333 85.333s38.205 85.333 85.333 85.333c47.128 0 85.333-38.205 85.333-85.333 0-47.128-38.205-85.333-85.333-85.333M329.92 337.152c-14.895-26.231-42.641-43.638-74.453-43.638-47.128 0-85.333 38.205-85.333 85.333 0 16.097 4.457 31.152 12.204 44 14.935 24.769 42.098 41.333 73.13 41.333 47.128 0 85.333-38.205 85.333-85.333 0-15.317-4.035-29.691-11.101-42.117M763.84 768c47.128 0 85.333-38.205 85.333-85.333s-38.205-85.333-85.333-85.333c-47.128 0-85.333 38.205-85.333 85.333 0 47.128 38.205 85.333 85.333 85.333M763.84 213.333c-0.021 0-0.047 0-0.072 0-39.16 0-74.203-17.626-97.628-45.378l-289.885 167.063c4.932 13.101 7.787 28.245 7.787 44.055 0 0.105 0 0.209 0 0.314 0 0.072 0 0.177 0 0.281 0 15.81-2.855 30.953-8.077 44.942l295.544 169.566c23.265-24.363 56.001-39.509 92.275-39.509 0.020 0 0.039 0 0.059 0 70.689 0 127.997 57.308 127.997 128 0 70.692-57.308 128-128 128-70.692 0-128-57.308-128-128 0-18.965 4.224-36.907 11.627-53.099l-292.288-168.747c-23.653 28.833-59.285 47.084-99.18 47.084-70.692 0-128-57.308-128-128 0-0.188 0-0.376 0.001-0.564-0.001-0.123-0.001-0.304-0.001-0.484 0-70.692 57.308-128 128-128 39.895 0 75.526 18.251 99.001 46.86l289.373-166.752c-5.397-13.568-8.529-29.29-8.533-45.743 0-70.582 57.308-127.889 128-127.889 70.692 0 128 57.308 128 128 0 70.692-57.308 128-128 128z"  horiz-adv-x="1024" />

    
    <glyph glyph-name="xiugai" unicode="&#58994;" d="M103.039434-106.748962a18.907173 18.907173 0 0 1 26.563797-19.532204l242.199326 105.630158L132.25961 155.763856C123.352925 76.228722 104.445752-93.779579 103.039434-106.748962zM155.541997 224.04844L431.180456 20.913521l441.896577 600.341814-274.857171 203.134918L155.541997 224.04844zM899.953345 745.48015L709.006522 885.799502a52.658821 52.658821 0 0 1-73.441086-11.094292l-15.625763-21.09478 274.857171-203.134919 15.625763 21.094781A52.658821 52.658821 0 0 1 899.953345 745.48015z m-156.257629-129.693832a31.251526 31.251526 0 0 0 7.187851-44.377167L453.212782 158.263978a31.251526 31.251526 0 0 0-44.377167-7.187851 31.251526 31.251526 0 0 0-7.187851 44.377167l297.827042 413.145173a31.251526 31.251526 0 0 0 44.22091 7.187851z"  horiz-adv-x="1024" />

    
    <glyph glyph-name="ren" unicode="&#58968;" d="M660.3377269841269 367.93490996825403c63.609585777777774 46.82495898412698 105.13127415873015 121.9640909206349 105.13127517460316 206.83000380952382 0 141.6993726984127-115.29052139682538 256.98742247619043-256.99730793650787 256.98742247619043-141.7055502222222 0-256.9973069206349-115.28804977777776-256.9973069206349-256.98742247619043 0-85.90135974603173 42.520067047619044-161.88689066666666 107.45547073015872-208.56233853968251C206.83029333333337 306.28254273015875 98.74465726984135 158.24198095238103 98.74465726984135-14.874200380952402c0-21.27609701587301 17.25292596825397-38.52902298412698 38.5302593015873-38.52902298412698 21.27856761904762 0 38.53025828571429 17.25292596825397 38.53025828571429 38.52902298412698 0 183.42617396825392 149.2316962539682 332.67146158730156 332.66651936507935 332.67146158730156 1.5890041904761902 0 3.1137564444444434 0.20634819047619046 4.694110476190476 0.2434173968253968 0.800679619047619-0.055602793650793646 1.5531713015873012-0.2434163809523809 2.3625010793650794-0.2434173968253968 183.4335878095238 0 332.6640487619047-149.24528863492063 332.6640477460317-332.67146158730156 0-21.27609701587301 17.254162285714287-38.52902298412698 38.532729904761894-38.52902298412698 21.277332317460314 0 38.53025828571429 17.25292596825397 38.5302593015873 38.52902298412698-0.0012353015873015872 174.88558628571425-110.35422984126984 324.12963860317456-264.91761574603174 382.8091103492063z m-331.80282209523807 206.83000380952382c0 99.22008076190475 80.7204165079365 179.92690488888886 179.93555403174602 179.92690488888886s179.93679034920635-80.70806044444444 179.93679034920635-179.92690488888886c0-99.20278146031745-80.7216518095238-179.90960660317458-179.93679034920635-179.90960660317458s-179.93555403174602 80.70806044444444-179.93555403174602 179.90960660317458z"  horiz-adv-x="1024" />

    
    <glyph glyph-name="cart" unicode="&#58887;" d="M332.8 105.47199999999998q19.456 0 36.864-7.168t30.208-19.968 20.48-30.208 7.68-36.864-7.68-36.864-20.48-30.208-30.208-20.48-36.864-7.68q-20.48 0-37.888 7.68t-30.208 20.48-20.48 30.208-7.68 36.864 7.68 36.864 20.48 30.208 30.208 19.968 37.888 7.168zM758.784 103.42399999999998q19.456 0 37.376-7.168t30.72-19.968 20.48-30.208 7.68-36.864-7.68-36.864-20.48-30.208-30.72-20.48-37.376-7.68-36.864 7.68-30.208 20.48-20.48 30.208-7.68 36.864 7.68 36.864 20.48 30.208 30.208 19.968 36.864 7.168zM930.816 685.056q28.672 0 44.544-7.68t22.528-18.944 6.144-24.064-3.584-22.016-13.312-37.888-22.016-62.976-23.552-68.096-18.944-53.248q-13.312-40.96-33.28-56.832t-49.664-15.872l-35.84 0-65.536 0-86.016 0-96.256 0-253.952 0 14.336-92.16 517.12 0q49.152 0 49.152-41.984 0-20.48-9.728-35.84t-38.4-14.336l-49.152 0-94.208 0-118.784 0-119.808 0-99.328 0-55.296 0q-20.48 0-34.304 9.216t-23.04 24.064-14.848 32.256-8.704 32.768q-1.024 6.144-5.632 29.696t-11.264 58.88-14.848 78.848-16.384 87.552q-19.456 103.424-44.032 230.4l-76.8 0q-15.36 0-25.6 7.68t-16.896 18.432-9.216 23.04-2.56 22.528q0 20.48 13.824 33.792t37.376 12.288l103.424 0q20.48 0 32.768-6.144t19.456-15.36 10.24-18.944 5.12-16.896q2.048-8.192 4.096-23.04t4.096-30.208q3.072-18.432 6.144-38.912l700.416 0zM892.928 593.9200000000001l-641.024 2.048 35.84-185.344 535.552-1.024z"  horiz-adv-x="1028" />

    
    <glyph glyph-name="tian7_facebook" unicode="&#58891;" d="M515.3554380853279 883.2293028095734c-282.5920332986472 0-511.3446826222684-228.75904266389176-511.3446826222684-511.3446826222684s228.75904266389176-511.3446826222684 511.3446826222684-511.3446826222684c282.5920332986472 0 511.3446826222684 228.75904266389176 511.3446826222684 511.3446826222684 0 282.5920332986472-228.75904266389176 511.3446826222684-511.3446826222684 511.3446826222684zM652.5799625390218 374.5687575442248h-88.7736607700312v-320.25946305931313h-131.87329864724248v320.25946305931313h-67.29097190426639v110.32347970863682h67.29097190426639v67.29097190426639c0 88.7736607700312 37.68128199791883 142.61517585848077 142.61517585848077 142.61517585848077h88.7736607700312v-110.32347970863682h-53.83725286160249c-40.34837044745057 0-43.037835587929244-16.162364203954212-43.037835587929244-43.037835587929244v-53.83725286160249h99.55070135275754l-13.449456815816857-113.03532154006243z"  horiz-adv-x="1024" />

    
    <glyph glyph-name="flyme_icon-" unicode="&#59016;" d="M862.48 178h-668.96L157.344 539.792l226.8-100.8 142.144 304.928 141.648-305.008 230.72 100.672-36.176-361.584z m-640 32h611.024l27.84 278.4-209.28-91.328-125.856 271.008-126.352-271.072-205.2 91.2 27.824-278.208zM288 128h480v-32H288z"  horiz-adv-x="1024" />

    
    <glyph glyph-name="empty-star" unicode="&#58894;" d="M229.1-116.20000000000005c-10.3 0-20.6 3.2-29.4 9.6-15.7 11.4-23.5 30.4-20.2 49.5l47.2 277.7c1.6 9.2-1.4 18.5-8 24.9l-200 196.7C4.9 455.7 0.4 475 6.7 492.6c7.3 20.1 27 33.5 52.8 35.9l270 39.6c3.8 2.7 10.5 8.6 14.2 16L467.3 836.8c8.5 17.5 25.9 28.3 45.3 28.3s36.7-10.8 45.3-28.3l123.6-252.6c4-8.2 11.8-13.9 20.7-15.2l276.4-40.5c19.1-2.8 34.6-15.9 40.6-34.3s1.2-38.3-12.6-51.9l-200-196.7c-6.6-6.5-9.6-15.8-8-24.9L845.7-57c3.3-19.2-4.5-38.2-20.2-49.5-15.7-11.3-36-12.7-53-3.7l-247.3 131c-7.9 4.2-17.4 4.2-25.4 0l-247.2-131.1c-7.4-3.9-15.5-5.9-23.5-5.9zM84.2 467.5l179.2-176.3c21.5-21.1 31.3-51.5 26.2-81.3L247-40.799999999999955l222.8 118.2c26.7 14.2 58.6 14.2 85.3 0L778-40.799999999999955l-42.6 250.7c-5.1 29.8 4.7 60.2 26.2 81.3L942.4 469l-249.6 36.6c-29.8 4.4-55.6 23.2-68.9 50.4L512.5 783.6 401.2 556c-11.6-23.7-34-42.4-50-48.6l-3.3-1.3-263.7-38.6zM500.3 808.6z"  horiz-adv-x="1024" />

    
    <glyph glyph-name="denglu" unicode="&#58932;" d="M512 896C231.722 896 0 664.278 0 384s231.722-512 512-512 512 231.722 512 512S792.278 896 512 896z m0-215.537c75.399 0 134.744-59.346 134.744-134.744 0-75.399-59.345-134.744-134.744-134.744S377.256 470.32 377.256 545.72c0 75.398 59.345 134.744 134.744 134.744z m231.722-506.737c-21.58-43.16-129.348-80.794-231.722-86.189-107.769 5.395-215.537 43.16-237.117 86.189C226.327 265.441 388.046 357.025 512 357.025s280.278-91.584 231.722-183.299z m0 0"  horiz-adv-x="1024" />

    
    <glyph glyph-name="meiyouneirong" unicode="&#59000;" d="M512 384.299766m-508.502732 0a508.502732 508.502732 0 1 1 1017.005464 0 508.502732 508.502732 0 1 1-1017.005464 0ZM806.370023 157.077283H213.133489c-31.075722 0-56.355972 25.180328-56.355971 56.355972V524.690086c0 31.075722 25.180328 56.355972 56.355971 56.355972h593.236534c31.075722 0 56.355972-25.180328 56.355972-56.355972v-311.356753c-0.099922-31.075722-25.28025-56.25605-56.355972-56.25605zM610.323185 468.833724H249.205308c-6.594848 0-11.990632 5.395785-11.990632 11.990632v19.684621c0 6.594848 5.395785 11.990632 11.990632 11.990633h361.217799c6.594848 0 11.990632-5.395785 11.990632-11.990633v-19.684621c-0.099922-6.594848-5.495706-11.990632-12.090554-11.990632zM513.298985 377.505074H249.405152c-5.69555 0-10.291959 4.596409-10.291959 10.29196v23.081967c0 5.69555 4.596409 10.291959 10.291959 10.291959h263.893833c5.69555 0 10.291959-4.596409 10.29196-10.291959v-23.081967c0-5.69555-4.596409-10.291959-10.29196-10.29196zM410.379391 292.371585H247.806401c-4.496487 0-8.193599 3.697112-8.193599 8.193598v27.278689c0 4.496487 3.697112 8.193599 8.193599 8.193599h162.473068c4.496487 0 8.193599-3.697112 8.193599-8.193599v-27.278689c0.099922-4.496487-3.59719-8.193599-8.093677-8.193598zM670.875878 220.527713m-174.863388 0a174.863388 174.863388 0 1 1 349.726776 0 174.863388 174.863388 0 1 1-349.726776 0ZM899.497268 223.425449c0 125.202186-101.520687 226.722873-226.822795 226.722873C547.572209 450.248244 446.051522 348.727557 446.051522 223.425449 446.051522 98.223263 547.572209-3.297424 672.774395-3.297424c125.302108 0 226.722873 101.520687 226.722873 226.722873zM672.774395 53.358314c-93.92662 0-169.967213 76.140515-169.967213 170.067135 0 93.92662 76.140515 170.067135 169.967213 170.067135 94.026542 0 170.067135-76.140515 170.067135-170.067135 0-93.92662-76.140515-170.067135-170.067135-170.067135z m0 0M567.256831 211.63466h31.175644c0 51.559719 41.967213 93.526932 93.42701 93.526933v31.175644c-68.64637 0-124.602654-55.956284-124.602654-124.702577z m0 0M1004.115535-40.168618L880.711944 83.234973c-17.786105-29.576893-42.566745-54.357533-72.24356-72.043716l123.503513-123.503513c19.984387-19.884465 52.259173-19.884465 72.143638 0 19.984387 19.884465 19.984387 52.259173 0 72.143638z m0 0"  horiz-adv-x="1024" />

    
    <glyph glyph-name="Group" unicode="&#58886;" d="M494.933333 475.022222H768a91.022222 91.022222 0 1 0 0-182.044444H494.933333a91.022222 91.022222 0 1 0 0 182.044444zM950.044444 384l-273.066666-227.555556V611.555556zM676.977778 128a28.558222 28.558222 0 0 0-28.444445 28.444444V611.555556a28.444444 28.444444 0 0 0 46.648889 21.902222l273.066667-227.555556a28.444444 28.444444 0 0 0 0-43.747555l-273.066667-227.555556a28.103111 28.103111 0 0 0-18.204444-6.599111z m28.444444 422.855111v-333.653333L905.614222 384 705.422222 550.855111zM142.222222 896a113.777778 113.777778 0 0 0 113.777778-113.777778v-796.444444a113.777778 113.777778 0 0 0-227.555556 0V782.222222a113.777778 113.777778 0 0 0 113.777778 113.777778zM142.222222 99.555556h341.333334a113.777778 113.777778 0 0 0 0-227.555556H142.222222a113.777778 113.777778 0 0 0 0 227.555556zM142.222222 896h341.333334a113.777778 113.777778 0 0 0 0-227.555556H142.222222a113.777778 113.777778 0 0 0 0 227.555556z"  horiz-adv-x="1024" />

    
    <glyph glyph-name="gouwuche1" unicode="&#58893;" d="M347.136 112.63999999999999q19.456 0 36.864-7.168t30.72-19.968 20.48-30.208 7.168-36.864-7.168-36.864-20.48-30.208-30.72-20.48-36.864-7.68q-20.48 0-37.376 7.68t-30.208 20.48-20.48 30.208-7.168 36.864 7.168 36.864 20.48 30.208 30.208 19.968 37.376 7.168zM773.12 110.59199999999998q19.456 0 37.376-7.168t30.72-19.968 20.48-30.208 7.68-36.864-7.68-36.864-20.48-30.208-30.72-20.48-37.376-7.68-36.864 7.68-30.208 20.48-20.48 30.208-7.68 36.864 7.68 36.864 20.48 30.208 30.208 19.968 36.864 7.168zM945.152 692.2239999999999q28.672 0 44.544-7.68t22.528-18.944 6.144-24.064-3.584-22.016-12.8-37.888-22.016-62.976-24.064-68.096-17.92-53.248q-13.312-40.96-33.792-56.832t-50.176-15.872l-34.816 0-66.56 0-87.04 0-95.232 0-253.952 0 15.36-92.16 516.096 0q49.152 0 49.152-41.984 0-20.48-9.728-35.328t-38.4-14.848l-49.152 0-95.232 0-117.76 0-119.808 0-98.304 0-56.32 0q-20.48 0-34.304 9.216t-23.04 24.064-14.848 32.256-8.704 32.768q-1.024 6.144-5.632 29.696t-11.264 58.88-14.848 78.848-16.384 87.552q-19.456 103.424-44.032 230.4l-76.8 0q-15.36 0-25.6 7.68t-16.896 18.432-9.216 23.04-2.56 22.528q0 20.48 13.824 33.792t37.376 13.312l22.528 0 20.48 0 25.6 0 34.816 0q20.48 0 32.768-6.144t19.456-15.36 10.24-19.456 5.12-17.408q2.048-8.192 4.096-23.04t4.096-30.208q3.072-18.432 6.144-38.912l700.416 0z"  horiz-adv-x="1024" />

    
    <glyph glyph-name="meiyouxiangguanjilu" unicode="&#58921;" d="M129.99818 145.92587h17.96112c4.837854-0.093939 8.717531-4.039373 8.717532-8.886622a8.755107 8.755107 0 0 0-8.717532-8.886621h-17.96112v-17.96112a8.886621 8.886621 0 0 0-8.886621-8.717531 8.745713 8.745713 0 0 0-8.896015 8.717531v17.96112H94.263818A8.886621 8.886621 0 0 0 85.546287 137.039248c0 4.913005 3.823314 8.896015 8.717531 8.896015h17.951726v17.951727a8.886621 8.886621 0 0 0 8.896015 8.717531c4.903611 0 8.886621-3.823314 8.886621-8.717531v-17.951727z m629.390716 723.329628h17.96112c4.837854-0.093939 8.717531-4.039373 8.717531-8.886622a8.755107 8.755107 0 0 0-8.717531-8.886621h-17.96112v-17.96112a8.886621 8.886621 0 0 0-8.886622-8.717531 8.745713 8.745713 0 0 0-8.896015 8.717531V851.482255h-17.951726A8.886621 8.886621 0 0 0 714.937002 860.368876c0 4.913005 3.823314 8.896015 8.717531 8.896015h17.951726V887.216618A8.886621 8.886621 0 0 0 750.502274 895.934149c4.903611 0 8.886621-3.823314 8.886622-8.717531v-17.951727z m548.556281-648.178498v17.96112a8.745713 8.745713 0 0 1-8.896015 8.708137 8.886621 8.886621 0 0 1-8.886622-8.708137v-17.96112h-17.96112a8.745713 8.745713 0 0 1-8.717531-8.886621c0-4.772097 3.917253-8.896015 8.717531-8.896015h17.96112v-17.961121c0-4.884823 3.98301-8.708137 8.886622-8.708137a8.886621 8.886621 0 0 1 8.896015 8.708137v17.961121h17.951726c4.884823 0 8.717531 3.98301 8.717531 8.896015a8.886621 8.886621 0 0 1-8.717531 8.886621h-17.951726z m-645.970934-293.390013H214.327142a17.707485 17.707485 0 0 0-17.726273 17.782637c0 9.807222 8.050565 17.773242 17.726273 17.773242h80.637163a70.66085 70.66085 0 0 0-9.459649 35.480727V514.560951a71.074181 71.074181 0 0 0 71.205696 71.036606h53.263364v17.867181a71.074181 71.074181 0 0 0 71.205696 71.036606h426.604784a71.036606 71.036606 0 0 0 71.205696-71.036606v-515.837358a70.689032 70.689032 0 0 0-9.48783-35.471333h98.372829a17.754455 17.754455 0 0 0 17.801424-17.782636 17.754455 17.754455 0 0 0-17.782636-17.782637H854.511439v-17.867181a70.689032 70.689032 0 0 0-9.478437-35.480727h9.5348c9.769647 0 17.726273-7.890869 17.726273-17.773242a17.829606 17.829606 0 0 0-17.726273-17.782637h-93.553763a35.46194 35.46194 0 0 0-5.448457-43.305838 35.471333 35.471333 0 0 0-50.294894 0l-43.296445 43.305838z m65.005728 35.555879h56.551225a35.452546 35.452546 0 0 1 35.41497 35.659211V515.387613c0 19.201114-15.359012 34.635277-34.315885 34.635277H355.385814c-18.956873 0-34.315885-15.499921-34.315885-34.635277v-516.49493c0-19.689596 15.997797-35.659211 35.405576-35.659211h269.914678l-9.140256 9.159044a35.490121 35.490121 0 0 0-9.243589 34.381642l-16.786884 16.796278c-52.295793-38.928285-125.77481-30.92469-168.460652 18.365057-42.685842 49.280354-40.111916 123.153915 5.88997 169.353072 46.142794 46.311884 120.241808 49.036112 169.653676 6.22815 49.411868-42.789175 57.302737-116.521827 18.064453-168.808226l16.805671-16.796278a35.443152 35.443152 0 0 0 34.372249-9.234195l59.43515-59.444544z m127.531468 88.913181h53.507604a35.58406 35.58406 0 0 1 35.405577 35.565272V603.380193a35.452546 35.452546 0 0 1-35.414971 35.565272H480.93517a35.58406 35.58406 0 0 1-35.386788-35.565272v-17.782636h337.776149a71.036606 71.036606 0 0 0 71.205695-71.036606v-462.404904zM227.713437 705.613912h26.490774c7.477537 0 13.527203-5.918152 13.527203-13.339326a13.433265 13.433265 0 0 0-13.527203-13.339326h-26.490774v-26.490773c0-7.468144-5.918152-13.508416-13.339325-13.508416a13.433265 13.433265 0 0 0-13.339326 13.508416v26.490773h-26.490773a13.386295 13.386295 0 0 0-13.508416 13.339326c0 7.364811 6.040272 13.339326 13.508416 13.339326h26.490773v26.490773c0 7.468144 5.927545 13.51781 13.339326 13.51781 7.364811 0 13.339326-6.049666 13.339325-13.51781v-26.490773z m-208.929535-760.153682c0 9.807222 8.050565 17.773242 17.726272 17.773242H143.318718c9.769647 0 17.726273-7.890869 17.726273-17.773242a17.829606 17.829606 0 0 0-17.726273-17.782636H36.510174a17.707485 17.707485 0 0 0-17.726272 17.782636z m560.758945 114.934259A88.922575 88.922575 0 1 1 453.786825 186.159906a88.922575 88.922575 0 0 1 125.756022-125.756023z m-187.351767 418.497857c0 9.82601 7.956626 17.782636 17.763848 17.79203h195.618392a17.782636 17.782636 0 0 0 0-35.565273H409.973716a17.726273 17.726273 0 0 0-17.782636 17.782637z m0-88.903787c0 9.816616 7.91905 17.782636 17.660515 17.782636h284.747633c9.750859 0 17.660516-7.890869 17.660515-17.782636a17.726273 17.726273 0 0 0-17.660515-17.773243H409.851595a17.679303 17.679303 0 0 0-17.660515 17.773243z m0-88.903787a17.754455 17.754455 0 0 0 17.754454 17.782636H534.480351c9.797829 0 17.754455-7.890869 17.754454-17.782636a17.754455 17.754455 0 0 0-17.754454-17.782636H409.93614a17.707485 17.707485 0 0 0-17.74506 17.782636zM54.358568 407.780589a53.347909 53.347909 0 1 0 0 106.695817 53.347909 53.347909 0 0 0 0-106.695817z m0 26.678651a26.678651 26.678651 0 1 1 0 53.338515 26.678651 26.678651 0 0 1 0-53.338515z m1102.448292 80.017166a53.347909 53.347909 0 1 0 0 106.686423 53.347909 53.347909 0 0 0 0-106.686423z m0 26.669257a26.678651 26.678651 0 1 1 0.009394 53.347909 26.678651 26.678651 0 0 1-0.009394-53.357303z"  horiz-adv-x="1334" />

    
    <glyph glyph-name="shanchu" unicode="&#58882;" d="M792.274824 767.096471H217.389176A95.774118 95.774118 0 0 1 121.675294 671.322353v-31.924706h766.433882v31.924706a95.774118 95.774118 0 0 1-95.774117 95.774118zM624.880941 831.066353l14.095059-100.773647H370.627765l14.155294 100.773647h240.097882z m7.710118 63.849412H377.072941a56.862118 56.862118 0 0 1-54.512941-47.405177l-18.672941-133.662117a40.598588 40.598588 0 0 1 41.261176-47.465412h319.36753a40.598588 40.598588 0 0 1 41.261176 47.465412L687.104 847.450353a56.801882 56.801882 0 0 1-54.512941 47.465412z m175.646117-319.307294H201.426824A57.404235 57.404235 0 0 1 143.36 511.939765l52.404706-575.36753c3.132235-34.936471 34.454588-63.608471 69.571765-63.60847h479.051294c35.117176 0 66.499765 28.611765 69.692235 63.60847l52.284235 575.36753a57.404235 57.404235 0 0 1-58.066823 63.60847zM377.072941 0.722824H281.298824l-31.924706 447.066352h127.698823v-447.066352z m191.608471 0h-127.698824V447.789176h127.698824v-447.066352z m159.683764 0h-95.774117V447.789176h127.698823l-31.924706-447.066352z"  horiz-adv-x="1024" />

    
    <glyph glyph-name="zuo-yuan-tianchong" unicode="&#59335;" d="M607.185455 594.152727c6.376727-6.749091 9.541818-15.36 9.541818-23.970909 0-9.262545-3.653818-18.501818-10.938182-25.367273l-160.768-152.040727 162.117818-170.938182a34.909091 34.909091 0 0 0-50.641454-48.034909l-186.181819 196.282182a33.326545 33.326545 0 0 0-9.565091 24.971636c0.256 9.262545 4.165818 18.059636 10.91491 24.413091l186.181818 176.081455a34.885818 34.885818 0 0 0 49.338182-1.396364M23.272727 384c0-269.917091 218.810182-488.727273 488.727273-488.727273s488.727273 218.810182 488.727273 488.727273c0 269.893818-218.810182 488.727273-488.727273 488.727273S23.272727 653.893818 23.272727 384"  horiz-adv-x="1024" />

    
    <glyph glyph-name="you-yuan-tianchong" unicode="&#59336;" d="M416.814545 173.847273c-6.376727 6.749091-9.541818 15.36-9.541818 23.970909 0 9.262545 3.653818 18.501818 10.938182 25.367273l160.768 152.040727-162.117818 170.938182a34.909091 34.909091 0 0 0 50.641454 48.034909l186.181819-196.282182c6.376727-6.725818 10.146909-15.546182 9.565091-24.971636a34.839273 34.839273 0 0 0-10.91491-24.413091l-186.181818-176.081455a34.885818 34.885818 0 0 0-49.338182 1.396364M1000.727273 384c0 269.917091-218.810182 488.727273-488.727273 488.727273S23.272727 653.917091 23.272727 384c0-269.893818 218.810182-488.727273 488.727273-488.727273s488.727273 218.833455 488.727273 488.727273"  horiz-adv-x="1024" />

    
    <glyph glyph-name="img_Instagram" unicode="&#59043;" d="M711.68 535.04a85.333333 85.333333 0 0 1-48.64 48.64A571.306667 571.306667 0 0 1 512 593.92a571.306667 571.306667 0 0 1-151.04-10.24 87.893333 87.893333 0 0 1-48.64-48.64A571.306667 571.306667 0 0 1 302.08 384a571.306667 571.306667 0 0 1 10.24-151.04 89.173333 89.173333 0 0 1 48.64-48.64 571.306667 571.306667 0 0 1 151.04-10.24 571.306667 571.306667 0 0 1 151.04 10.24 85.333333 85.333333 0 0 1 48.64 48.64 571.306667 571.306667 0 0 1 10.24 151.04 571.306667 571.306667 0 0 1-10.24 151.04zM512 252.586667A131.413333 131.413333 0 1 0 643.413333 384 130.986667 130.986667 0 0 0 512 252.586667z m136.533333 237.653333a30.293333 30.293333 0 0 0-30.293333 30.293333 30.72 30.72 0 1 0 30.293333-30.293333zM512 896a512 512 0 1 1 512-512A512 512 0 0 1 512 896z m256-617.386667A153.6 153.6 0 0 0 725.333333 170.666667a152.746667 152.746667 0 0 0-107.093333-42.666667c-42.666667-2.133333-170.666667-2.133333-213.333333 0A153.6 153.6 0 0 0 298.666667 170.666667a153.6 153.6 0 0 0-42.666667 107.52v213.333333A152.746667 152.746667 0 0 0 298.666667 597.333333a154.453333 154.453333 0 0 0 107.946666 42.666667h213.333334A152.746667 152.746667 0 0 0 725.333333 597.333333a153.173333 153.173333 0 0 0 42.666667-107.52v-211.2zM512 469.333333a85.333333 85.333333 0 1 1 85.333333-85.333333 85.333333 85.333333 0 0 1-85.333333 85.333333z"  horiz-adv-x="1024" />

    
    <glyph glyph-name="x1" unicode="&#59198;" d="M286.165333 97.83466699999997L512 323.66933300000005l225.834667-225.834666 60.330666 60.330666L572.330667 384l225.834666 225.834667-60.330666 60.330666L512 444.330667 286.165333 670.165333 225.834667 609.8346670000001 451.669333 384l-225.834666-225.834667z"  horiz-adv-x="1024" />

    
    <glyph glyph-name="jiangbei-" unicode="&#59053;" d="M469.333333 213.33333300000004h85.333334v-128h-85.333334zM435.2 85.33333300000004h153.6c4.693333 0 8.533333-3.84 8.533333-8.533333v-34.133333h-170.666666v34.133333c0 4.693333 3.84 8.533333 8.533333 8.533333zM384 42.66666699999996h256a42.666667 42.666667 0 0 0 42.666667-42.666667v-42.666667H341.333333v42.666667a42.666667 42.666667 0 0 0 42.666667 42.666667zM213.333333 640v-85.333333a42.666667 42.666667 0 0 1 85.333334 0V640H213.333333zM170.666667 682.666667h170.666666v-128a85.333333 85.333333 0 1 0-170.666666 0V682.666667zM725.333333 640v-85.333333a42.666667 42.666667 0 0 1 85.333334 0V640h-85.333334z m-42.666666 42.666667h170.666666v-128a85.333333 85.333333 0 1 0-170.666666 0V682.666667zM298.666667 810.666667h426.666666a42.666667 42.666667 0 0 0 42.666667-42.666667v-341.333333a256 256 0 1 0-512 0V768a42.666667 42.666667 0 0 0 42.666667 42.666667zM512 426.666667l-100.309333-52.736 19.157333 111.701333-81.152 79.104 112.128 16.298667L512 682.666667l50.176-101.632 112.128-16.298667-81.152-79.104 19.157333-111.701333z"  horiz-adv-x="1024" />

    


  </font>
</defs>
</svg>
